<svg xmlns="http://www.w3.org/2000/svg" width="1920" height="1080" viewBox="0 0 1920 1080">
  <defs>
    <linearGradient id="base" x1="0" y1="0" x2="1" y2="1">
      <stop offset="0" stop-color="#02050A"/>
      <stop offset=".54" stop-color="#071325"/>
      <stop offset="1" stop-color="#02050A"/>
    </linearGradient>
    <radialGradient id="aura" cx="72%" cy="42%" r="62%">
      <stop offset="0" stop-color="#315F96" stop-opacity=".40"/>
      <stop offset=".36" stop-color="#17365C" stop-opacity=".18"/>
      <stop offset="1" stop-color="#02050A" stop-opacity="0"/>
    </radialGradient>
    <linearGradient id="beam" x1="0" y1="0" x2="1" y2="1">
      <stop offset="0" stop-color="#9EC9FF" stop-opacity="0"/>
      <stop offset=".50" stop-color="#9EC9FF" stop-opacity=".085"/>
      <stop offset="1" stop-color="#F5F8FF" stop-opacity="0"/>
    </linearGradient>
    <linearGradient id="fold" x1="0" y1="0" x2="1" y2="1">
      <stop offset="0" stop-color="#F5F8FF"/>
      <stop offset=".52" stop-color="#D7E8FF"/>
      <stop offset="1" stop-color="#9EC9FF"/>
    </linearGradient>
    <filter id="soft" x="-80%" y="-80%" width="260%" height="260%">
      <feGaussianBlur stdDeviation="28"/>
    </filter>
  </defs>

  <rect width="1920" height="1080" fill="url(#base)"/>
  <rect width="1920" height="1080" fill="url(#aura)"/>

  <path d="M-180 1010 L830 0 L1120 0 L90 1080 Z" fill="url(#beam)" opacity=".42"/>
  <path d="M850 1080 L1810 75 L2110 310 L1260 1080 Z" fill="url(#beam)" opacity=".50"/>

  <g transform="translate(1410 430) scale(1.35)">
    <path d="M0 -112 L96 -57 L96 53 L0 126 L-96 70 L-96 -48 Z"
          fill="#9EC9FF" opacity=".11" filter="url(#soft)"/>
    <path d="M-90 -54 L-8 -104 L88 -52 L5 -5 Z" fill="url(#fold)" opacity=".94"/>
    <path d="M-90 -54 L5 -5 L5 101 L-90 50 Z" fill="#EDF5FF" opacity=".92"/>
    <path d="M5 -5 L88 -52 L88 46 L5 101 Z" fill="#A9D0FF" opacity=".87"/>
    <path d="M-54 -37 L4 -70 L53 -42 L2 -13 Z" fill="#02050A" opacity=".72"/>
    <path d="M-54 -37 L2 -13 L2 52 L-54 22 Z" fill="#071325" opacity=".80"/>
    <path d="M2 -13 L53 -42 L53 18 L2 52 Z" fill="#0A1324" opacity=".88"/>
  </g>

  <text x="110" y="960" fill="#F5F8FF" opacity=".74"
        font-family="Noto Sans, DejaVu Sans, sans-serif"
        font-size="22" font-weight="300" letter-spacing="8">LUNOR</text>
</svg>
